  <svg width="12" height="14" viewBox="0 0 12 14" fill="none">
        <path
            fillRule="evenodd"
            clipRule="evenodd"
            d="M12 6.99805C12 10.3118 9.31371 12.998 6 12.998C2.68629 12.998 0 10.3118 0 6.99805C0 3.68434 2.68629 0.998047 6 0.998047C9.31371 0.998047 12 3.68434 12 6.99805ZM5 3.99805C5 3.44576 5.44772 2.99805 6 2.99805C6.55228 2.99805 7 3.44576 7 3.99805V5.99805H9C9.55229 5.99805 10 6.44576 10 6.99805C10 7.55033 9.55228 7.99805 9 7.99805H7V9.99805C7 10.5503 6.55228 10.998 6 10.998C5.44772 10.998 5 10.5503 5 9.99805V7.99805H3C2.44772 7.99805 2 7.55033 2 6.99805C2 6.44576 2.44772 5.99805 3 5.99805H5V3.99805Z"
            fill="#0158D6"
        />
    </svg>