 <svg width="24" height="24" viewBox="0 0 24 24" fill="none">
        <path
            fillRule="evenodd"
            clipRule="evenodd"
            d="M4 17L4 7L20 7V17L4 17ZM4 19C2.89543 19 2 18.1046 2 17V7C2 5.89543 2.89543 5 4 5H20C21.1046 5 22 5.89543 22 7V17C22 18.1046 21.1046 19 20 19L4 19ZM6.46047 10H7.86303L9.31707 14.3364H8.04318L7.76652 13.4875H6.55054L6.28032 14.3364H5L6.46047 10ZM7.56708 12.6935L7.16175 11.1666L6.73712 12.6935H7.56708ZM12.8335 11.0383H11.521V14.3364H10.2664V11.0383H8.94753V10H12.8335V11.0383ZM16.7454 12.0522V14.3364H18V10H16.636L15.6452 12.04L14.6609 10H13.2905V14.3364H14.5451V12.0522L15.3107 13.6585H15.9798L16.7454 12.0522Z"
            fill="#0158D6"
        />
    </svg>