<svg width="24" height="24" viewBox="0 0 24 24" fill="none" xmlns="http://www.w3.org/2000/svg">
<path fill-rule="evenodd" clip-rule="evenodd" d="M11 3C11 2.44772 11.4477 2 12 2C12.5523 2 13 2.44772 13 3V4.07089C16.3923 4.55612 19 7.47353 19 11V17H21C21.5523 17 22 17.4477 22 18C22 18.5523 21.5523 19 21 19H15.874C15.4299 20.7252 13.8638 22 12 22C10.1362 22 8.57006 20.7252 8.12602 19H3C2.44772 19 2 18.5523 2 18C2 17.4477 2.44772 17 3 17H5V11C5 7.47353 7.60771 4.55612 11 4.07089V3ZM12 20C12.7403 20 13.3866 19.5978 13.7324 19H10.2676C10.6134 19.5978 11.2597 20 12 20ZM12 6C9.23858 6 7 8.23858 7 11V17H17V11C17 8.23858 14.7614 6 12 6Z" />
</svg>
