<svg width="20" height="20" viewBox="0 0 20 20" fill="none" xmlns="http://www.w3.org/2000/svg">
<path fill-rule="evenodd" clip-rule="evenodd" d="M6 1C6 0.447715 6.44772 0 7 0C7.55228 0 8 0.447715 8 1V2H12V1C12 0.447715 12.4477 0 13 0C13.5523 0 14 0.447715 14 1V2C17.3137 2 20 4.68629 20 8V14C20 17.3137 17.3137 20 14 20H6C2.68629 20 0 17.3137 0 14V8C0 4.68629 2.68629 2 6 2V1ZM12 4V5C12 5.55228 12.4477 6 13 6C13.5523 6 14 5.55228 14 5V4C16.2091 4 18 5.79086 18 8V14C18 16.2091 16.2091 18 14 18H6C3.79086 18 2 16.2091 2 14V8C2 5.79086 3.79086 4 6 4V5C6 5.55228 6.44772 6 7 6C7.55228 6 8 5.55228 8 5V4H12ZM5 10C5 9.44771 5.44772 9 6 9C6.55228 9 7 9.44771 7 10C7 10.5523 6.55228 11 6 11C5.44772 11 5 10.5523 5 10ZM6 13C5.44772 13 5 13.4477 5 14C5 14.5523 5.44772 15 6 15C6.55228 15 7 14.5523 7 14C7 13.4477 6.55228 13 6 13ZM9 10C9 9.44771 9.44771 9 10 9C10.5523 9 11 9.44771 11 10C11 10.5523 10.5523 11 10 11C9.44771 11 9 10.5523 9 10ZM10 13C9.44771 13 9 13.4477 9 14C9 14.5523 9.44771 15 10 15C10.5523 15 11 14.5523 11 14C11 13.4477 10.5523 13 10 13ZM13 10C13 9.44771 13.4477 9 14 9C14.5523 9 15 9.44771 15 10C15 10.5523 14.5523 11 14 11C13.4477 11 13 10.5523 13 10ZM14 13C13.4477 13 13 13.4477 13 14C13 14.5523 13.4477 15 14 15C14.5523 15 15 14.5523 15 14C15 13.4477 14.5523 13 14 13Z" fill="#0158D6"/>
</svg>
