 <svg
        width="24"
        height="24"
        viewBox="0 0 24 24"
        fill="none"
        xmlns="http://www.w3.org/2000/svg">
        <path
            fillRule="evenodd"
            clipRule="evenodd"
            d="M10 4H14C15.1046 4 16 4.89543 16 6H8C8 4.89543 8.89543 4 10 4ZM6 6C6 3.79086 7.79086 2 10 2H14C16.2091 2 18 3.79086 18 6C20.2091 6 22 7.79086 22 10V11V18C22 20.2091 20.2091 22 18 22H6C3.79086 22 2 20.2091 2 18V11V10C2 7.79086 3.79086 6 6 6ZM18 8H16H8H6C4.89543 8 4 8.89543 4 10V11C4 12.1046 4.89543 13 6 13H7C7 12.4477 7.44772 12 8 12H9C9.55228 12 10 12.4477 10 13H14C14 12.4477 14.4477 12 15 12H16C16.5523 12 17 12.4477 17 13H18C19.1046 13 20 12.1046 20 11V10C20 8.89543 19.1046 8 18 8ZM14 15H10C10 15.5523 9.55228 16 9 16H8C7.44772 16 7 15.5523 7 15H6C5.27143 15 4.58835 14.8052 4 14.4649V18C4 19.1046 4.89543 20 6 20H18C19.1046 20 20 19.1046 20 18V14.4649C19.4117 14.8052 18.7286 15 18 15H17C17 15.5523 16.5523 16 16 16H15C14.4477 16 14 15.5523 14 15Z"
            fill="#0062C0"
        />
    </svg>