 <svg width="48" height="50" viewBox="0 0 48 50" fill="none">
        <path
            fillRule="evenodd"
            clipRule="evenodd"
            d="M28.4266 9.17882C28.7499 8.95249 29.1761 8.9375 29.5146 9.14056L39.5146 15.1406C39.8036 15.314 39.9858 15.6213 39.9993 15.9581C40.0127 16.2949 39.8556 16.6159 39.5813 16.8118L33.0001 21.5127V23.0548L38.4188 19.1843C38.8682 18.8633 39.4928 18.9674 39.8138 19.4168C40.1348 19.8662 40.0307 20.4908 39.5813 20.8118L33.0001 25.5126V27.0548L38.4188 23.1843C38.8682 22.8633 39.4928 22.9674 39.8138 23.4168C40.1348 23.8662 40.0307 24.4908 39.5813 24.8118L33.0001 29.5126V30.998C33.0001 31.3049 32.8592 31.5948 32.6179 31.7844L25.6179 37.2844C25.3169 37.5209 24.9072 37.5648 24.5629 37.3974C24.2186 37.2301 24.0001 36.8809 24.0001 36.498V35.9412L18.5813 39.8118C18.2213 40.0689 17.7353 40.059 17.3861 39.7874L8.38611 32.7874C7.95016 32.4483 7.87162 31.82 8.21069 31.3841C8.54976 30.9481 9.17804 30.8696 9.61399 31.2087L18.0255 37.751L24.0001 33.4834V31.9412L18.5813 35.8118C18.2213 36.0689 17.7353 36.059 17.3861 35.7874L8.38611 28.7874C7.95016 28.4483 7.87162 27.82 8.21069 27.3841C8.54976 26.9481 9.17804 26.8696 9.61399 27.2087L18.0255 33.751L24.0001 29.4834V27.9412L18.5813 31.8118C18.2214 32.0689 17.7353 32.059 17.3861 31.7874L8.38612 24.7874C8.13555 24.5925 7.99239 24.2902 8.00038 23.9729C8.00836 23.6556 8.16654 23.3609 8.4266 23.1788L14.2198 19.1236C14.0767 18.945 13.9974 18.7204 14.0001 18.4864C14.0038 18.1676 14.1594 17.8696 14.4188 17.6843L21.4188 12.6843C21.7637 12.438 22.2263 12.4358 22.5735 12.6788L23.0001 12.9774L28.4266 9.17882ZM24.7439 14.198L32.3478 19.5208L37.1777 16.0708L29.042 11.1894L24.7439 14.198ZM15.8764 20.4053L10.6833 24.0404L18.0255 29.751L23.3072 25.9784L15.8764 20.4053ZM22.0059 14.7228L16.693 18.5177L25.6001 25.198C25.8519 25.3869 26.0001 25.6833 26.0001 25.998V34.4406L31.0001 30.512V21.0187L22.0059 14.7228Z"
            fill="#0158D6"
        />
    </svg>