 <svg width="24" height="24" viewBox="0 0 24 24" fill="none">
        <path
            fillRule="evenodd"
            clipRule="evenodd"
            d="M12.5 21C18.0228 21 22.5 16.7467 22.5 11.5C22.5 6.25329 18.0228 2 12.5 2C6.97715 2 2.5 6.25329 2.5 11.5C2.5 14.3408 3.81257 16.8904 5.893 18.6313C5.92565 18.9143 5.94261 19.2044 5.94261 19.5C5.94261 20.3793 5.79254 21.2104 5.52571 21.9475C5.8428 21.9821 6.16825 22 6.49998 22C8.14139 22 9.62884 21.5606 10.7121 20.8486C11.2922 20.9481 11.8897 21 12.5 21ZM20.5 11.5C20.5 15.6421 16.9183 19 12.5 19C11.7184 19 10.9629 18.8949 10.2489 18.699C9.84896 19.235 9.00239 19.6622 7.93551 19.8673C7.94021 19.7456 7.94258 19.6232 7.94258 19.5C7.94258 18.8157 7.86926 18.1528 7.73191 17.5229C5.77066 16.156 4.5 13.9671 4.5 11.5C4.5 7.35786 8.08172 4 12.5 4C16.9183 4 20.5 7.35786 20.5 11.5Z"
            fill="#0158D6"
        />
    </svg>