 <svg width="24" height="24" viewBox="0 0 24 24" fill="none">
        <path
            fillRule="evenodd"
            clipRule="evenodd"
            d="M20.7069 4.70726C21.0974 4.31674 21.0974 3.68358 20.7069 3.29305C20.3163 2.90253 19.6832 2.90253 19.2927 3.29305L11.9998 10.5859L4.70684 3.29305C4.31632 2.90253 3.68315 2.90253 3.29263 3.29305C2.9021 3.68358 2.90211 4.31674 3.29263 4.70727L10.5855 12.0002L3.29286 19.2928C2.90234 19.6834 2.90234 20.3165 3.29286 20.7071C3.68339 21.0976 4.31655 21.0976 4.70707 20.7071L11.9998 13.4144L19.2924 20.7071C19.683 21.0976 20.3161 21.0976 20.7067 20.7071C21.0972 20.3165 21.0972 19.6834 20.7067 19.2928L13.414 12.0002L20.7069 4.70726Z"
            fill="#0158D6"
        />
    </svg>