 <svg
    width="24"
    height="24"
    viewBox="0 0 24 24"
    fill="none"
    xmlns="http://www.w3.org/2000/svg">
    <path
        fillRule="evenodd"
        clipRule="evenodd"
        d="M22.2185 17.0801C21.7168 18.3354 20.4059 19 19.054 19H4.94601C3.59412 19 2.2832 18.3354 1.78151 17.0801C1.27732 15.8184 1 14.4416 1 13C1 6.92487 5.92487 2 12 2C18.0751 2 23 6.92487 23 13C23 14.4416 22.7227 15.8184 22.2185 17.0801ZM14.5547 9.16795C15.0142 9.4743 15.1384 10.0952 14.8321 10.5547L13.7931 12.1131C13.9255 12.3804 14 12.6815 14 13C14 14.1046 13.1046 15 12 15C10.8954 15 10 14.1046 10 13C10 11.8954 10.8954 11 12 11C12.0433 11 12.0862 11.0014 12.1288 11.0041L13.1679 9.4453C13.4743 8.98577 14.0952 8.8616 14.5547 9.16795ZM4 15C4 14.4477 4.44772 14 5 14C5.55228 14 6 14.4477 6 15C6 15.5523 5.55228 16 5 16C4.44772 16 4 15.5523 4 15ZM6 8C5.44772 8 5 8.44772 5 9C5 9.55228 5.44772 10 6 10C6.55228 10 7 9.55228 7 9C7 8.44772 6.55228 8 6 8ZM12 5C12.5523 5 13 5.44772 13 6C13 6.55228 12.5523 7 12 7C11.4477 7 11 6.55228 11 6C11 5.44772 11.4477 5 12 5ZM19 14C18.4477 14 18 14.4477 18 15C18 15.5523 18.4477 16 19 16C19.5523 16 20 15.5523 20 15C20 14.4477 19.5523 14 19 14ZM17 9C17 8.44772 17.4477 8 18 8C18.5523 8 19 8.44772 19 9C19 9.55228 18.5523 10 18 10C17.4477 10 17 9.55228 17 9ZM5 20C4.44772 20 4 20.4477 4 21C4 21.5523 4.44772 22 5 22H19C19.5523 22 20 21.5523 20 21C20 20.4477 19.5523 20 19 20H5Z"
           
    />
</svg>