 <svg width="24" height="24"  viewBox="0 0 24 24" fill="none">
        <path
            fillRule="evenodd"
            clipRule="evenodd"
            d="M21.4092 6.58579L8.08829 19.9067C7.64919 20.3458 7.11389 20.6767 6.52478 20.873L3.31796 21.942C2.5362 22.2026 1.79246 21.4588 2.05305 20.6771L3.12199 17.4702C3.31836 16.8811 3.64919 16.3458 4.08829 15.9067L17.4092 2.58579C18.1903 1.80474 19.4566 1.80474 20.2377 2.58579L21.4092 3.75736C22.1903 4.53841 22.1903 5.80474 21.4092 6.58579ZM19.995 5.17157L18.8234 4L17.4934 5.33008L18.6649 6.50166L19.995 5.17157ZM5.5025 17.3209L16.0791 6.7443L17.2507 7.91587L6.67408 18.4925C6.45453 18.7121 6.18688 18.8775 5.89232 18.9757L4.58287 19.4121L5.01935 18.1027C5.11754 17.8081 5.28295 17.5405 5.5025 17.3209ZM11 20C10.4477 20 10 20.4477 10 21C10 21.5523 10.4477 22 11 22H19C19.5523 22 20 21.5523 20 21C20 20.4477 19.5523 20 19 20H11Z"
            fill="#0158D6"
        />
    </svg>