 <svg width="24" height="24" viewBox="0 0 24 24" fill="none">
        <path
            fillRule="evenodd"
            clipRule="evenodd"
            d="M21 5H10.8293C10.4175 3.83481 9.30622 3 8 3C6.69378 3 5.58254 3.83481 5.17071 5H3C2.44772 5 2 5.44772 2 6C2 6.55228 2.44772 7 3 7H5.17071C5.58254 8.16519 6.69378 9 8 9C9.30622 9 10.4175 8.16519 10.8293 7H21C21.5523 7 22 6.55228 22 6C22 5.44772 21.5523 5 21 5ZM8 7C8.55228 7 9 6.55228 9 6C9 5.44772 8.55228 5 8 5C7.44772 5 7 5.44772 7 6C7 6.55228 7.44772 7 8 7ZM21 11H18.8293C18.4175 9.83481 17.3062 9 16 9C14.6938 9 13.5825 9.83481 13.1707 11H3C2.44772 11 2 11.4477 2 12C2 12.5523 2.44772 13 3 13H13.1707C13.5825 14.1652 14.6938 15 16 15C17.3062 15 18.4175 14.1652 18.8293 13H21C21.5523 13 22 12.5523 22 12C22 11.4477 21.5523 11 21 11ZM16 13C16.5523 13 17 12.5523 17 12C17 11.4477 16.5523 11 16 11C15.4477 11 15 11.4477 15 12C15 12.5523 15.4477 13 16 13ZM10.8293 17H21C21.5523 17 22 17.4477 22 18C22 18.5523 21.5523 19 21 19H10.8293C10.4175 20.1652 9.30622 21 8 21C6.69378 21 5.58254 20.1652 5.17071 19H3C2.44772 19 2 18.5523 2 18C2 17.4477 2.44772 17 3 17H5.17071C5.58254 15.8348 6.69378 15 8 15C9.30622 15 10.4175 15.8348 10.8293 17ZM9 18C9 18.5523 8.55228 19 8 19C7.44772 19 7 18.5523 7 18C7 17.4477 7.44772 17 8 17C8.55228 17 9 17.4477 9 18Z"
        />
    </svg>