<svg width="64" height="64" viewBox="0 0 64 64" fill="none" xmlns="http://www.w3.org/2000/svg">
<path fill-rule="evenodd" clip-rule="evenodd" d="M31.4 3.96124C35.04 3.94123 38.64 4.4814 42.04 5.72179C48.54 8.08253 53.78 13.1441 56.94 19.3661L60.74 17.7856C60.73 17.7756 60.725 17.7606 60.72 17.7455C60.715 17.7305 60.71 17.7155 60.7 17.7055C60.3 16.8453 59.84 16.005 59.34 15.1847L58.98 14.5846C58.54 13.8843 58.06 13.2041 57.56 12.5239L57.56 12.5239C57.4 12.3038 57.24 12.0838 57.08 11.8837C51.12 4.34136 41.52 0.080025 31.84 0H31.38C25.72 0.0600188 20.08 1.6005 15.18 4.40138C15.1089 4.44511 15.0364 4.48885 14.9632 4.533L14.9632 4.533L14.9632 4.53301L14.9632 4.53302L14.9631 4.53302L14.9631 4.53303C14.7684 4.65042 14.5689 4.77069 14.38 4.90153C14.2 5.00156 14.04 5.10159 13.88 5.22163C6.08 10.5633 0.76 19.306 0 29.3292C0.792306 27.9993 1.55456 26.6554 2.31433 25.3158L2.31436 25.3158L2.3144 25.3157C4.94925 20.6702 7.55434 16.0772 11.28 12.3038C16.54 7.00219 23.96 4.02126 31.4 3.96124ZM31.28 31.8699C29.72 31.8299 29.2 33.2904 29.2 33.2904C25.92 41.513 20.72 48.8553 14.96 55.6174C14.5499 56.107 14.1135 56.5879 13.6799 57.0658C13.4579 57.3104 13.2367 57.5542 13.02 57.798C14.16 58.6383 15.34 59.4186 16.58 60.0988C23.2 52.6564 28.88 44.4739 32.66 35.311C33.38 33.5305 32.72 32.07 31.28 31.8699ZM18.12 16.7653C16.8 17.8456 15.58 19.086 14.54 20.4665C12.3922 23.3209 10.6817 26.4144 8.94956 29.5469C7.24604 32.6276 5.52165 35.7461 3.33997 38.7122C2.67997 39.6124 1.99997 40.4927 1.31997 41.373C0.799971 39.7325 0.459971 38.0119 0.219971 36.2514C0.499971 35.8913 0.779971 35.5112 1.05997 35.131C2.87594 32.5755 4.42016 29.81 5.95926 27.0537C8.87822 21.8264 11.7788 16.6319 16.48 12.9641L18.12 16.7653ZM56.36 31.6899C55.62 18.7059 44.26 8.10254 31.8 7.92249H31.42C28.72 7.94249 26.04 8.42264 23.48 9.2629L25.08 12.9441C27.12 12.2638 29.28 11.9037 31.44 11.8837H31.92C40.64 12.0838 48.66 18.3257 51.4 26.5083C54.34 35.291 50.82 44.654 46.16 52.7365C45.1 54.5771 44 56.3776 42.86 58.1582L46.12 60.5389C52 51.7162 56.96 41.9331 56.36 31.6899ZM31.3 23.9275C35.94 24.0675 40.32 27.7887 40.68 32.8103C41.0324 37.8752 38.3404 42.4412 35.858 46.6518L35.858 46.6518L35.8576 46.6524L35.8532 46.6599C35.6604 46.987 35.4688 47.312 35.28 47.6349C32.18 53.0766 28.62 58.2382 24.68 63.1397C23.3 62.8196 21.96 62.3995 20.64 61.8994C25.34 56.1776 29.5 50.1357 32.94 43.7337C33.1201 43.3986 33.3053 43.0588 33.4925 42.7151L33.4926 42.7149L33.4927 42.7147C35.9666 38.1741 38.8013 32.9713 35.12 29.5492C34.08 28.5889 32.7 28.0488 31.3 27.8687H31.14C28.4 27.9287 26.26 30.0094 25.14 32.6902C21.56 41.0328 16.26 48.5152 10.08 55.3373C9.11999 54.437 8.19999 53.4967 7.35999 52.4964C10.9 48.4352 14.14 44.1738 16.98 39.6924C18.96 36.5514 20.56 33.2304 22.08 29.8293C23.72 26.2882 27.28 23.9275 31.3 23.9275ZM63.4201 25.808C63.4001 25.718 63.3851 25.6329 63.3701 25.5479C63.3551 25.4629 63.3401 25.3779 63.3201 25.2878L59.6401 26.8083C60.0201 28.5689 60.2601 30.3494 60.3201 32.15C60.6201 40.1325 57.9801 47.8349 54.1801 54.9771C60.2201 49.1153 64.0001 40.9127 64.0001 31.8299C64.0001 29.7692 63.7801 27.7686 63.4201 25.808ZM31.56 15.885C38.74 15.945 45.56 20.8866 47.74 27.9088C50.28 36.0913 46.08 45.3342 41.88 52.1764C39.44 56.1776 36.84 60.1188 34.08 63.9C33.9 63.91 33.7201 63.9213 33.5401 63.9325C33.0001 63.9663 32.46 64 31.92 64C31 64 30.08 63.94 29.18 63.86C31.76 60.519 34.2 57.0779 36.44 53.4768C36.7092 53.0416 36.9807 52.6056 37.2527 52.1686C41.0828 46.0172 45.0308 39.6764 44.62 32.6903C44.22 26.0882 38.82 19.9463 31.64 19.8262H31.32C26.44 19.9063 21.84 22.7271 19.16 27.0285C17.9367 28.9898 16.9054 31.0339 15.8619 33.102C14.4999 35.8016 13.1172 38.5422 11.26 41.1929C9.31996 43.9938 7.19996 46.6346 4.99996 49.2354C4.23996 48.0351 3.55996 46.7947 2.95996 45.5143C5.21996 42.7734 7.37996 39.9525 9.33996 36.9916C10.6706 34.9855 11.7647 32.8024 12.8553 30.626C15.2235 25.9003 17.5757 21.2065 22.3 18.4258C25.1 16.7853 28.32 15.885 31.56 15.885Z" fill="#6DB0FE"/>
</svg>
