<svg width="20" height="16" viewBox="0 0 20 16" fill="none" xmlns="http://www.w3.org/2000/svg">
<path fill-rule="evenodd" clip-rule="evenodd" d="M4 2H16C17.1046 2 18 2.89543 18 4V12C18 13.1046 17.1046 14 16 14H4C2.89543 14 2 13.1046 2 12V4C2 2.89543 2.89543 2 4 2ZM0 4C0 1.79086 1.79086 0 4 0H16C18.2091 0 20 1.79086 20 4V12C20 14.2091 18.2091 16 16 16H4C1.79086 16 0 14.2091 0 12V4ZM10 6C10 7.10457 9.10457 8 8 8C6.89543 8 6 7.10457 6 6C6 4.89543 6.89543 4 8 4C9.10457 4 10 4.89543 10 6ZM4 12C4 10.3431 5.34315 9 7 9H9C10.6569 9 12 10.3431 12 12H4Z" fill="#0158D6"/>
</svg>
