<svg width="20" height="20" viewBox="0 0 20 20" fill="none" xmlns="http://www.w3.org/2000/svg">
<path d="M1.05519 7.84443L7.07351 1.2935C8.66105 -0.434527 11.3871 -0.430995 12.9701 1.30114L18.9518 7.8461C19.6261 8.58387 20 9.54742 20 10.5472V16.9979C20 18.6558 18.6569 19.9998 17 19.9998H14C12.8954 19.9998 12 19.1038 12 17.9985V13.9961C12 12.8908 11.1046 11.9948 10 11.9948C8.89543 11.9948 8 12.8908 8 13.9961V17.9985C8 19.1038 7.10457 19.9998 6 19.9998H3C1.34315 19.9998 0 18.6558 0 16.9979V10.5531C0 9.54981 0.376596 8.58308 1.05519 7.84443Z" />
</svg>
