<svg width="20" height="20" viewBox="0 0 20 20" fill="none" xmlns="http://www.w3.org/2000/svg">
<path fill-rule="evenodd" clip-rule="evenodd" d="M20 10C20 15.5228 15.5228 20 10 20C4.47715 20 0 15.5228 0 10C0 4.47715 4.47715 0 10 0C15.5228 0 20 4.47715 20 10ZM10 8C10.5523 8 11 8.44771 11 9V14H12C12.5523 14 13 14.4477 13 15C13 15.5523 12.5523 16 12 16H8C7.44772 16 7 15.5523 7 15C7 14.4477 7.44772 14 8 14H9V10H8C7.44772 10 7 9.55229 7 9C7 8.44771 7.44772 8 8 8H10ZM10 6C10.5523 6 11 5.55228 11 5C11 4.44772 10.5523 4 10 4C9.44771 4 9 4.44772 9 5C9 5.55228 9.44771 6 10 6Z" fill="#0158D6"/>
</svg>
