<svg width="24" height="24" viewBox="0 0 24 24" fill="none" xmlns="http://www.w3.org/2000/svg">
<path fill-rule="evenodd" clip-rule="evenodd" d="M16.7069 2.29322C16.3166 1.9025 15.6834 1.90214 15.293 2.29286L6.29257 11.3023C6.05476 11.5404 5.96197 11.8687 6.01404 12.1773C6.0422 12.3444 6.1129 12.5058 6.22617 12.6439C6.24698 12.6693 6.26924 12.6939 6.29292 12.7176C6.29502 12.7197 6.29713 12.7218 6.29925 12.7239L15.2736 21.7072C15.6639 22.0979 16.2971 22.0976 16.6874 21.7068C17.0777 21.3161 17.0781 20.6823 16.6878 20.2916L8.41427 12.0098L16.7072 3.70849C17.0976 3.31777 17.0972 2.68394 16.7069 2.29322Z" fill="#0158D6"/>
</svg>
