<svg
         width="24"
        height="24"
        viewBox="0 0 24 24"
        fill="none"
        xmlns="http://www.w3.org/2000/svg">
        <path
            fillRule="evenodd"
            clipRule="evenodd"
            d="M19.1143 9.11142L15.0962 13.1295C13.9289 14.2968 12.0363 14.2968 10.869 13.1295C10.6231 12.8837 10.4291 12.6057 10.2868 12.309L8.82312 13.7727C9.00407 14.0451 9.21463 14.3036 9.45478 14.5438C11.4031 16.4921 14.562 16.4921 16.5104 14.5438L20.5285 10.5256C22.4768 8.57729 22.4768 5.4184 20.5285 3.47005C18.5801 1.5217 15.4213 1.5217 13.4729 3.47005L10.9318 6.01111C11.7513 6.00377 12.5718 6.13967 13.3526 6.4188L14.8871 4.88426C16.0544 3.71696 17.947 3.71696 19.1143 4.88426C20.2816 6.05156 20.2816 7.94413 19.1143 9.11142ZM4.87682 14.9044L8.89494 10.8863C10.0622 9.71902 11.9548 9.71902 13.1221 10.8863C13.368 11.1322 13.562 11.4102 13.7043 11.7068L15.168 10.2432C14.987 9.9708 14.7765 9.71226 14.5363 9.47211C12.588 7.52376 9.42908 7.52376 7.48073 9.47211L3.4626 13.4902C1.51426 15.4386 1.51426 18.5975 3.4626 20.5458C5.41095 22.4942 8.56985 22.4942 10.5182 20.5458L13.0593 18.0048C12.2398 18.0121 11.4193 17.8762 10.6385 17.5971L9.10398 19.1316C7.93668 20.2989 6.04411 20.2989 4.87682 19.1316C3.70952 17.9643 3.70952 16.0717 4.87682 14.9044Z"
            fill="#0062C0"
        />
    </svg>