 <svg width="24" height="24" viewBox="0 0 24 24" fill="none">
        <path
            fillRule="evenodd"
            clipRule="evenodd"
            d="M12.0001 12C14.7767 12 17.0277 9.76142 17.0277 7C17.0277 4.23858 14.7767 2 12.0001 2C9.22342 2 6.9725 4.23858 6.9725 7C6.9725 9.76142 9.22342 12 12.0001 12ZM12.0001 10C13.6661 10 15.0166 8.65685 15.0166 7C15.0166 5.34315 13.6661 4 12.0001 4C10.3341 4 8.98353 5.34315 8.98353 7C8.98353 8.65685 10.3341 10 12.0001 10ZM13.379 16.4844L15.6056 15H16.0001C18.2092 15 20.0001 16.7909 20.0001 19V22H22.0001V19C22.0001 15.6863 19.3138 13 16.0001 13H15.0001L12.0001 15L9.00009 13H8.00009C4.68638 13 2.00009 15.6863 2.00009 19V22H4.00009V19C4.00009 16.7909 5.79095 15 8.00009 15H8.39454L10.6212 16.4844L11.0001 18L10.5001 22H13.5001L13.0001 18L13.379 16.4844ZM15.0001 18H18.0001V20H15.0001V18Z"
            fill="#0158D6"
        />
    </svg>