 <svg
        width="24"
        height="24"
        viewBox="0 0 24 24"
        fill="none"
        xmlns="http://www.w3.org/2000/svg">
        <path
            fillRule="evenodd"
            clipRule="evenodd"
            d="M14 2C16.2091 2 18 3.79086 18 6C20.2091 6 22 7.79086 22 10V19C22 20.6569 20.6569 22 19 22H18H16H6C3.79086 22 2 20.2091 2 18V6C2 3.79086 3.79086 2 6 2H14ZM18 19V8C19.1046 8 20 8.89543 20 10V19C20 19.5523 19.5523 20 19 20C18.4477 20 18 19.5523 18 19ZM5 11C5 10.4477 5.44772 10 6 10H13C13.5523 10 14 10.4477 14 11C14 11.5523 13.5523 12 13 12H6C5.44772 12 5 11.5523 5 11ZM6 14C5.44772 14 5 14.4477 5 15C5 15.5523 5.44772 16 6 16H11C11.5523 16 12 15.5523 12 15C12 14.4477 11.5523 14 11 14H6Z"
        />
    </svg>