 <svg width="24" height="24" viewBox="0 0 24 24" fill="none">
        <path
            fillRule="evenodd"
            clipRule="evenodd"
            d="M7.27316 2.00039C7.30613 2.00053 7.33531 2.00066 7.36027 2.00066C8.15839 2.00068 8.73214 2.46713 9.15017 2.98365C9.56005 3.49011 9.95193 4.20526 10.376 5.05346C10.8968 6.09503 11.3185 7.11329 11.0681 8.09849C10.8125 9.10454 9.94273 9.75231 9.02093 10.3427C8.77112 10.5027 8.49992 10.5673 8.26121 10.5888C8.79347 11.2975 9.63068 12.2356 10.6887 13.2936C11.752 14.3568 12.6977 15.1972 13.4111 15.7286C13.4319 15.4879 13.4961 15.2134 13.6579 14.9607C13.7393 14.8337 13.8089 14.7067 13.8805 14.5703C13.8945 14.5436 13.9095 14.5146 13.9254 14.4841C13.982 14.375 14.0488 14.2462 14.1139 14.1341C14.2862 13.837 14.5892 13.3913 15.1799 13.1958C15.7203 13.0169 16.2957 13.1182 16.8449 13.2911C17.418 13.4716 18.1427 13.7913 19.0757 14.2578C20.0283 14.7341 20.7779 15.1847 21.2681 15.6814C21.5248 15.9413 21.7412 16.2438 21.867 16.6023C21.9961 16.9704 22.0084 17.3372 21.9419 17.6869C21.9341 17.7279 21.9266 17.8051 21.9143 17.98C21.9136 17.9898 21.9129 17.9998 21.9122 18.01C21.9018 18.1584 21.8881 18.3526 21.862 18.5553C21.8075 18.9785 21.6857 19.5662 21.3107 20.0855C20.8366 20.7421 20.1824 21.1111 19.6218 21.3394C19.2112 21.5065 18.7608 21.6286 18.4491 21.7131C18.3557 21.7384 18.2748 21.7603 18.2111 21.7791C16.3756 22.3199 14.343 21.7177 12.5159 20.7382C10.656 19.7412 8.81953 18.2528 7.27446 16.7078C5.72938 15.1627 4.24105 13.3262 3.24399 11.4663C2.26451 9.63924 1.66234 7.60655 2.20314 5.77105C2.22172 5.70797 2.24326 5.62883 2.26799 5.53797C2.35271 5.22666 2.47487 4.77783 2.64376 4.36672C2.87304 3.80863 3.24232 3.16207 3.89614 2.68994C4.50081 2.2533 5.33293 2.1134 5.91102 2.05419C6.46972 1.99697 7.00086 1.99923 7.27316 2.00039ZM6.11479 4.04378C5.56458 4.10014 5.20706 4.21024 5.067 4.31138C4.83269 4.48058 4.6488 4.74928 4.49372 5.12674C4.37647 5.41215 4.30444 5.67631 4.2263 5.96284C4.1937 6.08237 4.16005 6.2058 4.1216 6.33628C3.8047 7.41189 4.11212 8.85271 5.00667 10.5214C5.88363 12.1572 7.23374 13.8386 8.68867 15.2936C10.1436 16.7485 11.825 18.0986 13.4609 18.9756C15.1295 19.8701 16.5703 20.1775 17.6459 19.8606C17.7805 19.821 17.9076 19.7865 18.0307 19.7531C18.3161 19.6757 18.5803 19.604 18.8676 19.487C19.2517 19.3306 19.5221 19.1462 19.6893 18.9146C19.7728 18.799 19.8388 18.6075 19.8784 18.2998C19.8969 18.1563 19.9069 18.0149 19.918 17.8566L19.9202 17.8253C19.9302 17.6839 19.944 17.4873 19.9771 17.3133C19.9821 17.2871 19.9816 17.2746 19.9814 17.2718C19.9813 17.2699 19.9812 17.2686 19.9797 17.2644C19.9768 17.2559 19.9542 17.1972 19.8449 17.0865C19.6031 16.8415 19.1122 16.5121 18.1813 16.0467C17.2696 15.5909 16.6604 15.3299 16.2441 15.1987C16.0533 15.1386 15.9321 15.1156 15.8621 15.1069C15.8565 15.1161 15.8504 15.1263 15.8439 15.1376C15.8044 15.2056 15.7681 15.2755 15.7178 15.3724C15.6982 15.4101 15.6765 15.452 15.6516 15.4994C15.584 15.6282 15.5027 15.779 15.4037 15.941C15.4044 15.9714 15.407 16.0151 15.4133 16.076C15.4209 16.1498 15.4296 16.2146 15.4402 16.2932C15.4466 16.3407 15.4537 16.3932 15.4616 16.4558C15.4795 16.598 15.5 16.7815 15.5 16.9699C15.5 17.2375 15.4317 17.6802 15.0425 17.9994C14.6625 18.311 14.2271 18.2973 13.9851 18.2579C13.5211 18.1825 13.0318 17.8982 12.6183 17.6187C11.722 17.0129 10.5394 15.9727 9.27446 14.7078C8.01058 13.4439 6.97051 12.2663 6.36478 11.3754C6.08574 10.965 5.8001 10.4775 5.72408 10.0141C5.68428 9.77154 5.67041 9.33457 5.98485 8.95427C6.3049 8.56719 6.74683 8.50066 7.0118 8.50066C7.20017 8.50066 7.38366 8.52113 7.52581 8.53909C7.58845 8.547 7.64098 8.55407 7.68846 8.56046C7.76706 8.57104 7.83181 8.57975 7.90561 8.58735C7.9646 8.59342 8.0074 8.59605 8.03768 8.59689C8.93352 8.01259 9.0928 7.75132 9.12977 7.60584C9.17332 7.43449 9.14411 7.06187 8.58713 5.94785C8.1607 5.09494 7.85308 4.5601 7.59551 4.24184C7.45946 4.07373 7.37927 4.01726 7.34679 4.00065C7.32029 4.00063 7.29189 4.00054 7.26175 4.00044C6.98439 3.99954 6.5601 3.99818 6.11479 4.04378ZM7.32987 3.99482C7.32977 3.99395 7.33461 3.99466 7.34468 3.99959C7.33501 3.99816 7.32997 3.9957 7.32987 3.99482ZM15.405 15.8877C15.405 15.8877 15.4049 15.8887 15.4046 15.8906L15.405 15.8877Z"
            fill="#0158D6"
        />
    </svg>