 <svg
        width="24"
        height="24"
        viewBox="0 0 24 24"
        fill="none"
        xmlns="http://www.w3.org/2000/svg">
        <path
            fillRule="evenodd"
            clipRule="evenodd"
            d="M20 6V5C20 4.44772 19.5523 4 19 4C18.4477 4 18 4.44772 18 5V6H20ZM16.1707 4C16.0602 4.31278 16 4.64936 16 5V19C16 19.5523 15.5523 20 15 20C14.4477 20 14 19.5523 14 19V17C14 16.4477 13.5523 16 13 16H7V5C7 4.44772 7.44771 4 8 4H16.1707ZM19 2C20.6569 2 22 3.34315 22 5V7C22 7.55228 21.5523 8 21 8H18V19C18 20.6569 16.6569 22 15 22H10H5C3.34315 22 2 20.6569 2 19V17C2 16.4477 2.44772 16 3 16H5V5C5 3.34315 6.34315 2 8 2H19ZM12 19C12 19.3506 12.0602 19.6872 12.1707 20H10H5C4.44772 20 4 19.5523 4 19V18H12V19Z"
            fill="#0062C0"
        />
    </svg>