<svg
        width="24"
        height="24"
        viewBox="0 0 24 24"
        fill="none"
        xmlns="http://www.w3.org/2000/svg">
        <path
            fillRule="evenodd"
            clipRule="evenodd"
            d="M15 10V7C15 5.34315 13.6569 4 12 4C10.3431 4 9 5.34315 9 7V10H15ZM7 7V10.126C5.27477 10.5701 4 12.1362 4 14V18C4 20.2091 5.79086 22 8 22H16C18.2091 22 20 20.2091 20 18V14C20 12.1362 18.7252 10.5701 17 10.126V7C17 4.23858 14.7614 2 12 2C9.23858 2 7 4.23858 7 7ZM6 14C6 12.8954 6.89543 12 8 12H16C17.1046 12 18 12.8954 18 14V18C18 19.1046 17.1046 20 16 20H8C6.89543 20 6 19.1046 6 18V14ZM12 18C13.1046 18 14 17.1046 14 16C14 14.8954 13.1046 14 12 14C10.8954 14 10 14.8954 10 16C10 17.1046 10.8954 18 12 18Z"
            fill="#0062C0"
        />
    </svg>