 <svg
          width="24"
        height="24"
        viewBox="0 0 24 24"
        fill="none"
        xmlns="http://www.w3.org/2000/svg">
        <path
            fillRule="evenodd"
            clipRule="evenodd"
            d="M6 18C6 19.1046 6.89543 20 8 20H16C17.1046 20 18 19.1046 18 18V9H16C14.3431 9 13 7.65685 13 6V4H8C6.89543 4 6 4.89543 6 6V18ZM15 4.82843L17.1716 7H16C15.4477 7 15 6.55228 15 6V4.82843ZM8 2C5.79086 2 4 3.79086 4 6V18C4 20.2091 5.79086 22 8 22H16C18.2091 22 20 20.2091 20 18V8.65685C20 7.59599 19.5786 6.57857 18.8284 5.82843L16.1716 3.17157C15.4214 2.42143 14.404 2 13.3431 2H8ZM16 12C16 11.4477 15.5523 11 15 11L9 11C8.44772 11 8 11.4477 8 12C8 12.5523 8.44772 13 9 13L15 13C15.5523 13 16 12.5523 16 12ZM12 16C12 15.4477 11.5523 15 11 15H9C8.44772 15 8 15.4477 8 16C8 16.5523 8.44772 17 9 17L11 17C11.5523 17 12 16.5523 12 16Z"
            fill="#0062C0"
        />
    </svg>