<svg width="64" height="64" viewBox="0 0 64 64" fill="none" xmlns="http://www.w3.org/2000/svg">
<g clip-path="url(#clip0_9027_3233)">
<path fill-rule="evenodd" clip-rule="evenodd" d="M15.9996 18C15.9996 16.8954 16.895 16 17.9996 16C19.1041 16 19.9996 16.8954 19.9996 18V22C19.9996 23.1046 19.1041 24 17.9996 24C16.895 24 15.9996 23.1046 15.9996 22V18ZM1.40007 57.908C2.45385 58.2391 3.57651 57.6533 3.9076 56.5995C7.65934 44.6585 18.8203 36 31.9996 36C45.1788 36 56.3398 44.6585 60.0915 56.5995C60.4226 57.6533 61.5453 58.2391 62.599 57.908C63.6528 57.577 64.2387 56.4543 63.9076 55.4005C59.6469 41.8397 46.9751 32 31.9996 32C17.0241 32 4.35217 41.8397 0.0915185 55.4005C-0.239568 56.4543 0.346292 57.577 1.40007 57.908ZM45.9996 16C44.895 16 43.9996 16.8954 43.9996 18V22C43.9996 23.1046 44.895 24 45.9996 24C47.1041 24 47.9996 23.1046 47.9996 22V18C47.9996 16.8954 47.1041 16 45.9996 16Z" fill="#FB8BAC"/>
</g>
<defs>
<clipPath id="clip0_9027_3233">
<rect width="64" height="64" fill="white"/>
</clipPath>
</defs>
</svg>
