<svg width="24" height="24" viewBox="0 0 24 24" fill="none">
        <path
            fillRule="evenodd"
            clipRule="evenodd"
            d="M2.03363 4.24334C1.93508 3.87524 2.05717 3.48314 2.34683 3.23557C2.63649 2.9885 3.0432 2.92948 3.3914 3.08452C7.50424 4.91504 17.2208 9.23975 21.4247 11.1113C21.7749 11.2678 22 11.6159 22 12C22 12.3841 21.7749 12.7322 21.4247 12.8888C17.2208 14.7603 7.50424 19.085 3.3914 20.9155C3.0432 21.0706 2.63649 21.0116 2.34683 20.7645C2.05717 20.5169 1.93508 20.1248 2.03363 19.7567C2.79907 16.9014 4.11282 12 4.11282 12C4.11282 12 2.79907 7.09865 2.03363 4.24334ZM5.91633 13.0003L4.51606 18.2253L16.2547 13.0003H5.91633ZM5.91633 10.9997H16.2547L4.51606 5.77478L5.91633 10.9997Z"
            fill="#0158D6"
        />
    </svg>