 <svg
        width="24"
        height="24"
        viewBox="0 0 24 24"
        fill="none"
        xmlns="http://www.w3.org/2000/svg">
        <path
            fillRule="evenodd"
            clipRule="evenodd"
            d="M10.2721 2.68377C10.4082 2.27543 10.7903 2 11.2208 2H12.7792C13.2097 2 13.5918 2.27543 13.7279 2.68377L14.2761 4.32845C14.8148 4.48804 15.3298 4.70281 15.8145 4.96623L17.3658 4.1906C17.7508 3.99811 18.2157 4.07356 18.5201 4.37792L19.6221 5.47994C19.9265 5.7843 20.0019 6.24927 19.8094 6.63426L19.0338 8.18554C19.2972 8.67023 19.512 9.18518 19.6716 9.72385L21.3162 10.2721C21.7246 10.4082 22 10.7903 22 11.2208V12.7792C22 13.2097 21.7246 13.5918 21.3162 13.7279L19.6716 14.2761C19.512 14.8148 19.2972 15.3298 19.0338 15.8145L19.8094 17.3657C20.0019 17.7507 19.9265 18.2157 19.6221 18.5201L18.5201 19.6221C18.2157 19.9264 17.7508 20.0019 17.3658 19.8094L15.8145 19.0338C15.3298 19.2972 14.8148 19.512 14.2761 19.6716L13.7279 21.3162C13.5918 21.7246 13.2097 22 12.7792 22H11.2208C10.7903 22 10.4082 21.7246 10.2721 21.3162L9.72385 19.6716C9.18516 19.512 8.67019 19.2972 8.18548 19.0338L6.63423 19.8094C6.24924 20.0019 5.78427 19.9264 5.47991 19.6221L4.37789 18.5201C4.07353 18.2157 3.99808 17.7507 4.19057 17.3657L4.96621 15.8145C4.7028 15.3298 4.48803 14.8148 4.32845 14.2761L2.68377 13.7279C2.27543 13.5918 2 13.2097 2 12.7792V11.2208C2 10.7903 2.27543 10.4082 2.68377 10.2721L4.32845 9.72385C4.48803 9.18518 4.7028 8.67023 4.9662 8.18554L4.19056 6.63426C3.99807 6.24927 4.07352 5.7843 4.37788 5.47994L5.47989 4.37792C5.78426 4.07356 6.24923 3.99811 6.63422 4.1906L8.18548 4.96623C8.67018 4.70281 9.18516 4.48804 9.72385 4.32845L10.2721 2.68377ZM16 12C16 14.2091 14.2091 16 12 16C9.79086 16 8 14.2091 8 12C8 9.79086 9.79086 8 12 8C14.2091 8 16 9.79086 16 12Z"
        />
    </svg>