<svg width="24" height="24" viewBox="0 0 24 24" fill="none">
        <path
            fillRule="evenodd"
            clipRule="evenodd"
            d="M14.0001 4C14.0001 5.10457 13.1047 6 12.0001 6C10.8955 6 10.0001 5.10457 10.0001 4C10.0001 2.89543 10.8955 2 12.0001 2C13.1047 2 14.0001 2.89543 14.0001 4ZM8.00009 10C8.00009 8.34315 9.34324 7 11.0001 7H13.0001C14.6569 7 16.0001 8.34315 16.0001 10H8.00009ZM20.0001 16C20.0001 17.1046 19.1047 18 18.0001 18C16.8955 18 16.0001 17.1046 16.0001 16C16.0001 14.8954 16.8955 14 18.0001 14C19.1047 14 20.0001 14.8954 20.0001 16ZM14.0001 22C14.0001 20.3431 15.3432 19 17.0001 19H19.0001C20.6569 19 22.0001 20.3431 22.0001 22H14.0001ZM6.00009 18C7.10466 18 8.00009 17.1046 8.00009 16C8.00009 14.8954 7.10466 14 6.00009 14C4.89552 14 4.00009 14.8954 4.00009 16C4.00009 17.1046 4.89552 18 6.00009 18ZM5.00009 19C3.34324 19 2.00009 20.3431 2.00009 22H10.0001C10.0001 20.3431 8.65695 19 7.00009 19H5.00009ZM13.0001 12.5C13.0001 11.9477 12.5524 11.5 12.0001 11.5C11.4478 11.5 11.0001 11.9477 11.0001 12.5V14L9.40009 15.2C8.95826 15.5314 8.86872 16.1582 9.20009 16.6C9.53146 17.0418 10.1583 17.1314 10.6001 16.8L12.0001 15.75L13.4001 16.8C13.8419 17.1314 14.4687 17.0418 14.8001 16.6C15.1315 16.1582 15.0419 15.5314 14.6001 15.2L13.0001 14V12.5Z"
            fill="#0158D6"
        />
    </svg>