<svg width="16" height="20" viewBox="0 0 16 20" fill="none" xmlns="http://www.w3.org/2000/svg">
<path fill-rule="evenodd" clip-rule="evenodd" d="M4 18C2.89543 18 2 17.1046 2 16V4C2 2.89543 2.89543 2 4 2H9V4C9 5.65685 10.3431 7 12 7H14V16C14 17.1046 13.1046 18 12 18H4ZM13.1716 5L11 2.82843V4C11 4.55228 11.4477 5 12 5H13.1716ZM0 4C0 1.79086 1.79086 0 4 0H9.34315C10.404 0 11.4214 0.421427 12.1716 1.17157L14.8284 3.82843C15.5786 4.57857 16 5.59599 16 6.65685V16C16 18.2091 14.2091 20 12 20H4C1.79086 20 0 18.2091 0 16V4ZM5.5 11C6.32843 11 7 10.3284 7 9.5C7 8.67157 6.32843 8 5.5 8C4.67157 8 4 8.67157 4 9.5C4 10.3284 4.67157 11 5.5 11ZM12 14.5C12 15.3284 11.3284 16 10.5 16C9.67157 16 9 15.3284 9 14.5C9 13.6716 9.67157 13 10.5 13C11.3284 13 12 13.6716 12 14.5ZM11.7071 9.70711C12.0976 9.31658 12.0976 8.68342 11.7071 8.29289C11.3166 7.90237 10.6834 7.90237 10.2929 8.29289L4.29289 14.2929C3.90237 14.6834 3.90237 15.3166 4.29289 15.7071C4.68342 16.0976 5.31658 16.0976 5.70711 15.7071L11.7071 9.70711Z" fill="#0158D6"/>
</svg>
